HIERARCHY
ROOT Root
{
  OFFSET 0.0 0.0 0.0
  CHANNELS 6 Xposition Yposition Zposition Zrotation Yrotation Xrotation
  JOINT Hips
  {
    OFFSET 0.0 100.0 0.0
    CHANNELS 6 Xposition Yposition Zposition Zrotation Yrotation Xrotation
    JOINT Spine1
    {
      OFFSET -0.013727 5.003763 -0.053727
      CHANNELS 3 Zrotation Yrotation Xrotation
      JOINT Spine2
      {
        OFFSET -0.0 7.125301 -0.029825
        CHANNELS 3 Zrotation Yrotation Xrotation
        JOINT Chest
        {
          OFFSET -1e-06 7.550063 -0.815971
          CHANNELS 3 Zrotation Yrotation Xrotation
          JOINT Neck1
          {
            OFFSET -0.181677 26.311295 -0.553348
            CHANNELS 3 Zrotation Yrotation Xrotation
            JOINT Neck2
            {
              OFFSET -3e-06 7.709397 2.302585
              CHANNELS 3 Zrotation Yrotation Xrotation
              JOINT Head
              {
                OFFSET -5e-06 6.128916 1.953709
                CHANNELS 3 Zrotation Yrotation Xrotation
                JOINT HeadEnd
                {
                  OFFSET 0.003598 16.065403 -1.835379
                  CHANNELS 3 Zrotation Yrotation Xrotation
                }
                JOINT Jaw
                {
                  OFFSET 0.002637 0.475592 3.094941
                  CHANNELS 3 Zrotation Yrotation Xrotation
                }
                JOINT LeftEye
                {
                  OFFSET 3.206381 5.380205 7.586883
                  CHANNELS 3 Zrotation Yrotation Xrotation
                }
                JOINT RightEye
                {
                  OFFSET -3.22244 5.361869 7.558234
                  CHANNELS 3 Zrotation Yrotation Xrotation
                }
              }
            }
          }
          JOINT LeftShoulder
          {
            OFFSET 1.621652 23.237164 5.113413
            CHANNELS 3 Zrotation Yrotation Xrotation
            JOINT LeftArm
            {
              OFFSET 14.919846 2e-06 -5.502326
              CHANNELS 3 Zrotation Yrotation Xrotation
              JOINT LeftForeArm
              {
                OFFSET 28.739307 0.0 -0.002588
                CHANNELS 3 Zrotation Yrotation Xrotation
                JOINT LeftHand
                {
                  OFFSET 27.093981 -1e-06 0.002609
                  CHANNELS 3 Zrotation Yrotation Xrotation
                  JOINT LeftHandThumb1
                  {
                    OFFSET 2.276482 -1.392045 3.191413
                    CHANNELS 3 Zrotation Yrotation Xrotation
                    JOINT LeftHandThumb2
                    {
                      OFFSET 4.012836 -1.828127 1.641654
                      CHANNELS 3 Zrotation Yrotation Xrotation
                      JOINT LeftHandThumb3
                      {
                        OFFSET 2.798515 0.0 -3e-06
                        CHANNELS 3 Zrotation Yrotation Xrotation
                        JOINT LeftHandThumbEnd
                        {
                          OFFSET 3.180793 -4e-06 4e-06
                          CHANNELS 3 Zrotation Yrotation Xrotation
                        }
                      }
                    }
                  }
                  JOINT LeftHandIndex1
                  {
                    OFFSET 3.247555 -0.531998 2.296169
                    CHANNELS 3 Zrotation Yrotation Xrotation
                    JOINT LeftHandIndex2
                    {
                      OFFSET 6.364578 0.01206 0.1786
                      CHANNELS 3 Zrotation Yrotation Xrotation
                      JOINT LeftHandIndex3
                      {
                        OFFSET 3.662364 0.0 0.0
                        CHANNELS 3 Zrotation Yrotation Xrotation
                        JOINT LeftHandIndex4
                        {
                          OFFSET 2.329242 4e-06 4e-06
                          CHANNELS 3 Zrotation Yrotation Xrotation
                          JOINT LeftHandIndexEnd
                          {
                            OFFSET 2.759615 -0.180537 -0.113024
                            CHANNELS 3 Zrotation Yrotation Xrotation
                          }
                        }
                      }
                    }
                  }
                  JOINT LeftHandMiddle1
                  {
                    OFFSET 3.163495 0.240981 1.000332
                    CHANNELS 3 Zrotation Yrotation Xrotation
                    JOINT LeftHandMiddle2
                    {
                      OFFSET 6.19078 -0.259278 -1.002548
                      CHANNELS 3 Zrotation Yrotation Xrotation
                      JOINT LeftHandMiddle3
                      {
                        OFFSET 4.35652 -4e-06 -1e-06
                        CHANNELS 3 Zrotation Yrotation Xrotation
                        JOINT LeftHandMiddle4
                        {
                          OFFSET 2.996877 -8e-06 0.0
                          CHANNELS 3 Zrotation Yrotation Xrotation
                          JOINT LeftHandMiddleEnd
                          {
                            OFFSET 2.304287 -0.294569 -0.031741
                            CHANNELS 3 Zrotation Yrotation Xrotation
                          }
                        }
                      }
                    }
                  }
                  JOINT LeftHandRing1
                  {
                    OFFSET 2.882643 -0.053652 -0.322543
                    CHANNELS 3 Zrotation Yrotation Xrotation
                    JOINT LeftHandRing2
                    {
                      OFFSET 5.854541 -0.486202 -1.373841
                      CHANNELS 3 Zrotation Yrotation Xrotation
                      JOINT LeftHandRing3
                      {
                        OFFSET 4.350578 0.0 3e-06
                        CHANNELS 3 Zrotation Yrotation Xrotation
                        JOINT LeftHandRing4
                        {
                          OFFSET 2.651321 7e-06 2e-06
                          CHANNELS 3 Zrotation Yrotation Xrotation
                          JOINT LeftHandRingEnd
                          {
                            OFFSET 1.936105 0.077687 -7.1e-05
                            CHANNELS 3 Zrotation Yrotation Xrotation
                          }
                        }
                      }
                    }
                  }
                  JOINT LeftHandPinky1
                  {
                    OFFSET 2.8655 -0.310005 -1.600378
                    CHANNELS 3 Zrotation Yrotation Xrotation
                    JOINT LeftHandPinky2
                    {
                      OFFSET 5.087849 -1.331141 -1.77123
                      CHANNELS 3 Zrotation Yrotation Xrotation
                      JOINT LeftHandPinky3
                      {
                        OFFSET 3.070974 4e-06 0.0
                        CHANNELS 3 Zrotation Yrotation Xrotation
                        JOINT LeftHandPinky4
                        {
                          OFFSET 1.549672 0.0 1e-06
                          CHANNELS 3 Zrotation Yrotation Xrotation
                          JOINT LeftHandPinkyEnd
                          {
                            OFFSET 1.944893 -0.157802 0.057219
                            CHANNELS 3 Zrotation Yrotation Xrotation
                          }
                        }
                      }
                    }
                  }
                }
              }
            }
          }
          JOINT RightShoulder
          {
            OFFSET -1.380118 23.180309 5.214158
            CHANNELS 3 Zrotation Yrotation Xrotation
            JOINT RightArm
            {
              OFFSET -15.037196 1.2e-05 -5.545604
              CHANNELS 3 Zrotation Yrotation Xrotation
              JOINT RightForeArm
              {
                OFFSET -28.736639 2e-06 -0.002597
                CHANNELS 3 Zrotation Yrotation Xrotation
                JOINT RightHand
                {
                  OFFSET -27.133619 -0.0 0.002613
                  CHANNELS 3 Zrotation Yrotation Xrotation
                  JOINT RightHandThumb1
                  {
                    OFFSET -2.274032 -1.383988 3.163127
                    CHANNELS 3 Zrotation Yrotation Xrotation
                    JOINT RightHandThumb2
                    {
                      OFFSET -4.011429 -1.827466 1.640914
                      CHANNELS 3 Zrotation Yrotation Xrotation
                      JOINT RightHandThumb3
                      {
                        OFFSET -2.794935 -4e-06 -3e-06
                        CHANNELS 3 Zrotation Yrotation Xrotation
                        JOINT RightHandThumbEnd
                        {
                          OFFSET -3.183852 4e-06 1e-06
                          CHANNELS 3 Zrotation Yrotation Xrotation
                        }
                      }
                    }
                  }
                  JOINT RightHandIndex1
                  {
                    OFFSET -3.253266 -0.520057 2.282866
                    CHANNELS 3 Zrotation Yrotation Xrotation
                    JOINT RightHandIndex2
                    {
                      OFFSET -6.341917 0.012471 0.178266
                      CHANNELS 3 Zrotation Yrotation Xrotation
                      JOINT RightHandIndex3
                      {
                        OFFSET -3.654871 -8e-06 -0.0
                        CHANNELS 3 Zrotation Yrotation Xrotation
                        JOINT RightHandIndex4
                        {
                          OFFSET -2.327586 0.0 1e-06
                          CHANNELS 3 Zrotation Yrotation Xrotation
                          JOINT RightHandIndexEnd
                          {
                            OFFSET -2.76179 -0.180656 -0.113078
                            CHANNELS 3 Zrotation Yrotation Xrotation
                          }
                        }
                      }
                    }
                  }
                  JOINT RightHandMiddle1
                  {
                    OFFSET -3.168106 0.246593 1.00103
                    CHANNELS 3 Zrotation Yrotation Xrotation
                    JOINT RightHandMiddle2
                    {
                      OFFSET -6.180828 -0.258836 -1.000895
                      CHANNELS 3 Zrotation Yrotation Xrotation
                      JOINT RightHandMiddle3
                      {
                        OFFSET -4.348901 0.0 -0.0
                        CHANNELS 3 Zrotation Yrotation Xrotation
                        JOINT RightHandMiddle4
                        {
                          OFFSET -3.00024 -4e-06 -2e-06
                          CHANNELS 3 Zrotation Yrotation Xrotation
                          JOINT RightHandMiddleEnd
                          {
                            OFFSET -2.30252 -0.29437 -0.031706
                            CHANNELS 3 Zrotation Yrotation Xrotation
                          }
                        }
                      }
                    }
                  }
                  JOINT RightHandRing1
                  {
                    OFFSET -2.88569 -0.067952 -0.308858
                    CHANNELS 3 Zrotation Yrotation Xrotation
                    JOINT RightHandRing2
                    {
                      OFFSET -5.854198 -0.48613 -1.373731
                      CHANNELS 3 Zrotation Yrotation Xrotation
                      JOINT RightHandRing3
                      {
                        OFFSET -4.33881 -4e-06 -0.0
                        CHANNELS 3 Zrotation Yrotation Xrotation
                        JOINT RightHandRing4
                        {
                          OFFSET -2.654903 -4e-06 4e-06
                          CHANNELS 3 Zrotation Yrotation Xrotation
                          JOINT RightHandRingEnd
                          {
                            OFFSET -1.933568 0.077527 -5.2e-05
                            CHANNELS 3 Zrotation Yrotation Xrotation
                          }
                        }
                      }
                    }
                  }
                  JOINT RightHandPinky1
                  {
                    OFFSET -2.866425 -0.342796 -1.584145
                    CHANNELS 3 Zrotation Yrotation Xrotation
                    JOINT RightHandPinky2
                    {
                      OFFSET -5.091371 -1.332055 -1.772385
                      CHANNELS 3 Zrotation Yrotation Xrotation
                      JOINT RightHandPinky3
                      {
                        OFFSET -3.062664 -4e-06 1e-06
                        CHANNELS 3 Zrotation Yrotation Xrotation
                        JOINT RightHandPinky4
                        {
                          OFFSET -1.546529 4e-06 -2e-06
                          CHANNELS 3 Zrotation Yrotation Xrotation
                          JOINT RightHandPinkyEnd
                          {
                            OFFSET -1.945119 -0.157718 0.057211
                            CHANNELS 3 Zrotation Yrotation Xrotation
                          }
                        }
                      }
                    }
                  }
                }
              }
            }
          }
        }
      }
    }
    JOINT LeftLeg
    {
      OFFSET 10.043214 -8.434526 2.595655
      CHANNELS 3 Zrotation Yrotation Xrotation
      JOINT LeftShin
      {
        OFFSET -1e-06 -43.221752 -0.802913
        CHANNELS 3 Zrotation Yrotation Xrotation
        JOINT LeftFoot
        {
          OFFSET 1e-06 -42.155094 -3.481523
          CHANNELS 3 Zrotation Yrotation Xrotation
          JOINT LeftToeBase
          {
            OFFSET 0.0 -5.059472 13.231529
            CHANNELS 3 Zrotation Yrotation Xrotation
            JOINT LeftToeEnd
            {
              OFFSET -0.009607 -1.647619 6.513017
              CHANNELS 3 Zrotation Yrotation Xrotation
            }
          }
        }
      }
    }
    JOINT RightLeg
    {
      OFFSET -10.047278 -8.29526 2.620317
      CHANNELS 3 Zrotation Yrotation Xrotation
      JOINT RightShin
      {
        OFFSET 1e-06 -43.362206 -0.805556
        CHANNELS 3 Zrotation Yrotation Xrotation
        JOINT RightFoot
        {
          OFFSET 2e-06 -42.117393 -3.478398
          CHANNELS 3 Zrotation Yrotation Xrotation
          JOINT RightToeBase
          {
            OFFSET -0.0 -5.079609 13.284196
            CHANNELS 3 Zrotation Yrotation Xrotation
            JOINT RightToeEnd
            {
              OFFSET 0.009532 -1.634378 6.460591
              CHANNELS 3 Zrotation Yrotation Xrotation
            }
          }
        }
      }
    }
  }
}
MOTION
Frames: 4
Frame Time: 0.03333333333333333
0.0 0.0 0.0 0.0 -0.0 0.0 -1.363276 95.564705 0.286768 1.047861 -1.692108 -14.009727 0.825781 -0.196929 1.450662 0.043533 -0.506619 -3.964885 4.150523 -2.189195 3.879374 -3.288791 5.954944 32.490768 0.295845 2.132038 -3.182836 2.124728 0.488494 14.152848 7.7e-05 -2.3e-05 7e-06 0.015742 0.002063 -0.000639 0.736997 -3.75827 -10.519214 -0.697423 3.75774 -10.526665 -2.879471 -2.971244 4.378249 10.100692 -50.404739 8.891408 -35.011234 -89.043869 36.034473 34.244698 2.625155 23.550295 -5.882107 9.861285 0.702589 -10.936875 -0.360576 7.156207 1e-06 8.774827 -2e-06 -16.205462 17.469757 5.666987 -1.844035 2.498506 -2.507278 -10.163604 4.678945 4.621109 -20.97603 -7e-06 4e-06 -21.226294 2.451695 -3.593999 0.0 -6e-06 -2e-06 -1.362684 2.240798 -0.746326 -21.334921 0.584907 3.008323 -13.821217 -3e-06 1e-06 -23.887175 -0.249082 -0.83948 -62.845909 2.804759 -1.07306 -0.294025 1.679688 0.833255 -14.218214 0.093213 1.30058 -34.212063 -0.28757 0.967174 -20.033218 0.964536 1.212847 1e-06 1e-06 -0.0 -3.440389 0.788234 0.501656 -15.928192 -3.167313 2.999709 -6.338829 -1e-06 1e-06 -18.123453 3.648181 -4.905672 -5e-06 1e-06 -3e-06 8.217603 10.496694 6.131557 23.540035 77.285957 25.493668 0.995396 67.005501 1.039143 -24.050856 -42.877754 33.752457 2.243541 -5.255037 -3.180159 14.282896 -0.826593 6.952505 -4e-06 -12.690603 0.0 15.942169 -18.057503 2.760778 1.665666 -1.955922 -2.878299 4.727799 -4.170586 4.993925 11.020529 4e-06 -1e-06 12.109055 -3.735714 -2.866784 0.0 0.0 -0.0 1.291986 -1.928549 -1.49809 14.800136 0.56747 3.865609 14.242577 -1.341734 -6.660658 19.631975 0.143928 -0.648244 49.712681 -1.133543 -6.325491 0.35303 -1.511151 -0.03194 20.222801 3.684313 2.316632 18.787283 6e-06 0.0 10.751631 -0.479868 1.397907 -0.0 0.0 -1e-06 3.273809 0.305947 -0.580111 21.486824 11.830377 2.266133 8.16293 3e-06 -1e-06 18.399088 -3.798984 -4.940574 3e-06 0.0 -1e-06 21.482367 26.420952 6.57282 -0.267765 -0.399847 22.151049 -15.383932 13.709341 -6.07609 1.669653 -1.976878 -1.082349 -0.0 -1e-06 2e-06 -19.854488 -14.365652 6.041876 0.219976 0.418521 22.938931 16.922058 -10.938705 -10.167603 -1.442065 0.844846 -1.526356 0.0 1e-06 -1e-06 
0.0 0.0 0.0 0.0 -0.0 0.0 -1.304948 95.543434 0.347788 1.084503 -1.774371 -14.04349 0.861642 -0.194809 1.475394 0.071327 -0.512829 -3.965845 4.270675 -2.200337 3.860407 -3.171846 5.789822 32.55489 0.264412 2.053706 -3.191769 2.067824 0.336438 14.168748 7.7e-05 -2.3e-05 6e-06 0.016601 0.001949 0.00019 0.741217 -3.758639 -10.521767 -0.699246 3.757501 -10.53142 -2.687782 -3.095273 4.251152 9.871959 -50.400433 9.12382 -24.408527 -88.974167 25.345022 33.926956 2.755035 23.210772 -5.882108 9.861286 0.702588 -10.936874 -0.360577 7.156209 1e-06 8.774824 -2e-06 -16.186972 17.43383 5.672627 -1.844031 2.498504 -2.507278 -10.163604 4.678944 4.621111 -20.976032 -5e-06 5e-06 -21.226295 2.451695 -3.593999 0.0 -6e-06 -2e-06 -1.362682 2.240798 -0.746324 -21.334921 0.584904 3.008326 -13.82122 -4e-06 2e-06 -23.887178 -0.249082 -0.839479 -62.731606 2.795132 -1.036819 -0.294026 1.679689 0.833256 -14.218214 0.093213 1.300581 -34.212063 -0.287569 0.967175 -20.03322 0.964537 1.212847 1e-06 1e-06 -1e-06 -3.440388 0.788234 0.501655 -15.928189 -3.167312 2.999711 -6.338828 -1e-06 2e-06 -18.123451 3.648179 -4.905671 -5e-06 -1e-06 -1e-06 8.164315 10.6181 6.08202 24.897541 77.611496 27.007679 0.71453 66.164223 0.744468 -23.99848 -42.506142 33.827026 2.243542 -5.255037 -3.180161 14.282904 -0.826594 6.952511 -4e-06 -12.690607 0.0 15.934852 -18.043362 2.776226 1.665667 -1.955922 -2.878301 4.727804 -4.170587 4.993929 11.020535 4e-06 -0.0 12.109059 -3.735715 -2.866785 0.0 0.0 -0.0 1.291985 -1.928549 -1.498091 14.80014 0.56747 3.865613 14.242581 -1.341734 -6.660661 19.631981 0.143926 -0.648242 49.65435 -1.133367 -6.333562 0.353031 -1.511151 -0.031941 20.222809 3.684314 2.316635 18.787289 6e-06 2e-06 10.751637 -0.479869 1.397909 1e-06 1e-06 -1e-06 3.273809 0.305947 -0.580111 21.486834 11.830379 2.266138 8.162935 1e-06 1e-06 18.399096 -3.798985 -4.940573 3e-06 1e-06 -1e-06 21.483454 26.470861 6.648173 -0.268338 -0.403854 22.261271 -15.40939 13.71362 -6.203851 1.66995 -1.980541 -1.063084 0.0 -1e-06 2e-06 -19.973024 -14.396605 6.099304 0.223107 0.424567 22.912745 16.96847 -10.90074 -10.129489 -1.441105 0.835949 -1.536201 0.0 1e-06 -1e-06 
0.0 0.0 0.0 0.0 -0.0 0.0 -1.241012 95.519241 0.398191 1.123581 -1.866953 -14.070901 0.890772 -0.208522 1.511252 0.088926 -0.52797 -3.960227 4.396119 -2.197947 3.839513 -2.996861 5.585926 32.583302 0.251422 1.988798 -3.197246 2.008977 0.187669 14.125638 7.7e-05 -2.3e-05 6e-06 0.02138 -0.004465 0.003359 0.749953 -3.765044 -10.526824 -0.697402 3.750112 -10.537317 -2.434252 -3.217715 4.107993 9.492387 -50.391087 9.263816 -17.578003 -88.856873 18.462894 33.601749 2.836992 22.759565 -5.882106 9.861284 0.702589 -10.936873 -0.360574 7.156206 1e-06 8.774826 -2e-06 -16.229725 17.382332 5.635372 -1.844032 2.498502 -2.507279 -10.1636 4.678946 4.621109 -20.976025 -4e-06 2e-06 -21.226286 2.451696 -3.594002 0.0 -6e-06 -3e-06 -1.362682 2.240799 -0.746324 -21.334913 0.584911 3.008325 -13.821213 -3e-06 0.0 -23.887171 -0.249079 -0.839483 -62.605728 2.806184 -1.007057 -0.294025 1.679688 0.833256 -14.218208 0.093214 1.30058 -34.212048 -0.287565 0.967168 -20.033211 0.964536 1.212843 1e-06 1e-06 0.0 -3.440388 0.788232 0.501656 -15.928185 -3.16731 2.999707 -6.338828 2e-06 2e-06 -18.123444 3.648182 -4.905671 -5e-06 0.0 -1e-06 8.127915 10.727276 6.006213 26.396696 77.892258 28.566244 0.521056 65.362846 0.522681 -23.84564 -42.130211 33.983379 2.243541 -5.255036 -3.180158 14.282887 -0.826594 6.952506 -2e-06 -12.690602 0.0 15.950987 -18.013584 2.782248 1.665666 -1.955922 -2.878299 4.727799 -4.170587 4.993925 11.020524 3e-06 0.0 12.10905 -3.735716 -2.866783 -0.0 -0.0 -0.0 1.291983 -1.928549 -1.498089 14.800125 0.567469 3.86561 14.242569 -1.341737 -6.660656 19.631962 0.143925 -0.648243 49.595627 -1.138081 -6.326948 0.353029 -1.51115 -0.03194 20.222786 3.684309 2.316633 18.78727 4e-06 2e-06 10.751625 -0.479869 1.397907 1e-06 1e-06 -0.0 3.273806 0.305947 -0.58011 21.486809 11.830372 2.266137 8.162926 2e-06 2e-06 18.399076 -3.798987 -4.940572 3e-06 1e-06 -1e-06 21.481216 26.542416 6.702442 -0.271394 -0.410657 22.398542 -15.43826 13.723595 -6.342384 1.671231 -1.981089 -1.053137 -0.0 -1e-06 2e-06 -20.08745 -14.411663 6.12316 0.225108 0.425186 22.913231 17.009785 -10.822658 -10.204568 -1.440728 0.825159 -1.54581 0.0 0.0 -1e-06 
0.0 0.0 0.0 0.0 -0.0 0.0 -1.182223 95.500336 0.437607 1.16332 -1.952118 -14.087177 0.9154 -0.232776 1.549028 0.099999 -0.546059 -3.949819 4.51015 -2.189733 3.81436 -2.783803 5.355307 32.575825 0.256168 1.925293 -3.204119 1.963511 0.069498 14.017895 7.7e-05 -2.3e-05 7e-06 0.028728 -0.013169 0.009152 0.75966 -3.773014 -10.530074 -0.69123 3.739298 -10.539678 -2.129913 -3.345931 3.985004 9.039493 -50.36879 9.388233 -11.696034 -88.761406 12.649256 33.280308 2.930176 22.175373 -5.882107 9.861286 0.702589 -10.936875 -0.360577 7.156209 1e-06 8.774825 -1e-06 -16.302214 17.332085 5.594331 -1.844032 2.498504 -2.50728 -10.163603 4.678942 4.621113 -20.97603 -4e-06 7e-06 -21.226288 2.451696 -3.593998 0.0 -7e-06 -2e-06 -1.362682 2.240799 -0.746323 -21.334921 0.584908 3.008328 -13.821218 -4e-06 3e-06 -23.887178 -0.24908 -0.839478 -62.503559 2.82021 -0.995609 -0.294025 1.679687 0.833256 -14.218214 0.093215 1.300584 -34.212063 -0.287564 0.967175 -20.03322 0.964536 1.212848 1e-06 0.0 0.0 -3.44039 0.788233 0.501656 -15.928192 -3.167314 2.999711 -6.338829 -1e-06 3e-06 -18.123453 3.648184 -4.905669 -5e-06 -1e-06 -1e-06 8.101246 10.797172 5.942576 27.89855 78.167984 30.105795 0.231435 64.632751 0.178492 -23.637484 -41.818306 34.276619 2.243541 -5.255037 -3.18016 14.282896 -0.826594 6.952507 -3e-06 -12.690606 1e-06 15.958053 -18.002033 2.827447 1.665667 -1.955921 -2.8783 4.7278 -4.170588 4.993927 11.020529 4e-06 -1e-06 12.109055 -3.735714 -2.866785 -0.0 -0.0 0.0 1.291985 -1.928549 -1.49809 14.800134 0.567469 3.865609 14.242579 -1.341734 -6.660661 19.631975 0.143927 -0.648245 49.569408 -1.150433 -6.310651 0.353028 -1.511151 -0.03194 20.222797 3.684313 2.316631 18.787279 6e-06 1e-06 10.751631 -0.479868 1.397906 1e-06 0.0 -0.0 3.273808 0.305947 -0.580111 21.486822 11.830379 2.266133 8.16293 2e-06 0.0 18.39909 -3.798985 -4.940574 3e-06 1e-06 -1e-06 21.466522 26.610638 6.744304 -0.274514 -0.417658 22.509033 -15.459989 13.759717 -6.459075 1.672979 -1.980038 -1.037813 0.0 -1e-06 2e-06 -20.185389 -14.416841 6.118767 0.223335 0.430918 22.93293 17.042671 -10.754827 -10.205667 -1.440283 0.819313 -1.561984 0.0 1e-06 -1e-06 
